<?xml version="1.0" encoding="utf-8"?>
<!-- Generator: Adobe Illustrator 19.0.0, SVG Export Plug-In . SVG Version: 6.00 Build 0)  -->
<svg version="1.1" id="图层_1" xmlns="http://www.w3.org/2000/svg" xmlns:xlink="http://www.w3.org/1999/xlink" x="0px" y="0px"
	 viewBox="-264 607 220 122" style="enable-background:new -264 607 220 122;" xml:space="preserve">
<style type="text/css">
	.st0{fill:#D5D6D7;}
	.st1{fill:#B1B3B5;fill-opacity:0.6;}
	.st2{filter:url(#Adobe_OpacityMaskFilter);}
	.st3{fill:#FFFFFF;}
	.st4{mask:url(#mask-2);fill:#B1B3B5;fill-opacity:0.6;}
</style>
<title>220*122@1x</title>
<desc>Created with Sketch.</desc>
<rect id="size" x="-264" y="607" class="st0" width="220" height="122"/>
<g id="Group-38-Copy" transform="translate(91.000000, 50.000000)">
	<path id="Fill-34" class="st1" d="M-241.4,616c0.3-1.5,1.5-3.1,3.4-3.9c1.8-0.8,4.6-0.9,6.3,0.1c1.1,0.7,1.9,2,0.5,2.5
		c-1.4,0.6-8.4,3.1-9.4,3C-241.1,617.6-241.7,617.4-241.4,616 M-230.8,625.3c-3.4,1.3-5.6,0.6-6.3,0.3c-2.9-1.2-3.8-3.9-3.8-3.9
		s9.7-3.3,12.1-4.3c2.6-1.2,2.7-1.6,2.7-1.6c-1.3-4.5-5.4-7.8-10.2-7.8c-5.9,0-10.7,4.9-10.7,11c0,6.1,4.8,11,10.7,11
		c4.9,0,9.1-3.4,10.3-8.1C-227.9,623.6-228.4,624.4-230.8,625.3"/>
	<g id="Clip-37">
	</g>
	<defs>
		<filter id="Adobe_OpacityMaskFilter" filterUnits="userSpaceOnUse" x="-264" y="607" width="17" height="23">
			<feColorMatrix  type="matrix" values="1 0 0 0 0  0 1 0 0 0  0 0 1 0 0  0 0 0 1 0"/>
		</filter>
	</defs>
	<mask maskUnits="userSpaceOnUse" x="-264" y="607" width="17" height="23" id="mask-2">
		<g class="st2">
			<polygon id="path-1" class="st3" points="-264,607 -247,607 -247,630 -264,630 			"/>
		</g>
	</mask>
	<path id="Fill-36" class="st4" d="M-248.4,626.1h-7.9l0,0c-0.5,0-1-0.5-1-1l0,0v-16.7c0-0.8-0.6-1.4-1.4-1.4h-3.9
		c-0.8,0-1.4,0.6-1.4,1.4v19.1c0,0,0,0,0,0.1v1c0,0.8,0.6,1.4,1.4,1.4h0h3.9h10.3c0.8,0,1.4-0.6,1.4-1.4v-1
		C-247,626.8-247.6,626.1-248.4,626.1"/>
</g>
</svg>
