<?xml version="1.0" encoding="utf-8"?>
<!-- Generator: Adobe Illustrator 19.0.0, SVG Export Plug-In . SVG Version: 6.00 Build 0)  -->
<svg version="1.1" id="图层_1" xmlns="http://www.w3.org/2000/svg" xmlns:xlink="http://www.w3.org/1999/xlink" x="0px" y="0px"
	 viewBox="-4 6 26 26" style="enable-background:new -4 6 26 26;" xml:space="preserve">
<style type="text/css">
	.st0{fill:#FFFFFF;}
	.st1{fill:#00BC0D;}
</style>
<title>二维码</title>
<desc>Created with Sketch.</desc>
<g>
	<path id="Rectangle-38" class="st0" d="M1,6h16c2.8,0,5,2.2,5,5v16c0,2.8-2.2,5-5,5H1c-2.8,0-5-2.2-5-5V11C-4,8.2-1.8,6,1,6z"/>
	<path id="Combined-Shape" class="st1" d="M20,21.5c0,1.8-1.2,3.3-2.7,4.5l0.6,2l-2.1-1.2c-0.8,0.2-1.6,0.4-2.3,0.4
		c-3.7,0-6.6-2.5-6.6-5.7c0-3.1,2.9-5.7,6.6-5.7C16.9,15.9,20,18,20,21.5z M11.2,19c-0.4,0-0.8,0.4-0.8,0.8c0,0.4,0.4,0.8,0.8,0.8
		c0.6,0,1-0.4,1-0.8C12.2,19.4,11.8,19,11.2,19z M15.5,19c-0.4,0-0.8,0.4-0.8,0.8c0,0.4,0.4,0.8,0.8,0.8c0.6,0,1-0.4,1-0.8
		C16.5,19.4,16.1,19,15.5,19z M6.5,23.3c-0.2,0-0.5,0-0.7,0c-1,0-1.8-0.2-2.7-0.4l-2.7,1.4l0.8-2.4C-0.8,20.6-2,18.8-2,16.7
		c0-3.7,3.5-6.7,7.8-6.7c3.8,0,7.2,2.3,7.9,5.5c-0.2,0-0.5,0-0.8,0c-3.7,0-6.6,2.8-6.6,6.2C6.3,22.2,6.4,22.8,6.5,23.3z M8.7,15.3
		c0.6,0,1-0.4,1-1c0-0.6-0.4-1-1-1c-0.6,0-1.2,0.4-1.2,1C7.5,14.9,8.1,15.3,8.7,15.3z M4.2,14.3c0-0.6-0.4-1-1-1s-1.2,0.4-1.2,1
		c0,0.6,0.6,1,1.2,1S4.2,14.9,4.2,14.3z"/>
</g>
</svg>
